<svg width="100" height="100" viewBox="0 0 100 100" fill="none" xmlns="http://www.w3.org/2000/svg">
<rect x="0.5" y="0.5" width="99" height="99" fill="white" stroke="black"/>
<path d="M69.1587 73.84C66.059 73.84 63.2954 73.0931 60.8679 71.5993C58.4404 70.1428 56.5545 68.1074 55.21 65.4932C53.8656 62.879 53.1934 59.9287 53.1934 56.6422C53.1934 53.3558 53.8656 50.4055 55.21 47.7913C56.5545 45.1771 58.4404 43.1417 60.8679 41.6852C63.2954 40.1914 66.059 39.4445 69.1587 39.4445C73.3788 39.4445 76.5158 40.8263 78.5698 43.5899V26H88.5412V73.0557H78.5698V69.6946C76.5158 72.4582 73.3788 73.84 69.1587 73.84ZM70.7272 65.3251C73.1547 65.3251 75.0967 64.5222 76.5532 62.9163C78.0097 61.2731 78.7379 59.1818 78.7379 56.6422C78.7379 54.1027 78.0097 52.03 76.5532 50.4242C75.0967 48.7809 73.1547 47.9593 70.7272 47.9593C68.3744 47.9593 66.4885 48.7809 65.0693 50.4242C63.6502 52.03 62.9406 54.1027 62.9406 56.6422C62.9406 59.1818 63.6502 61.2731 65.0693 62.9163C66.4885 64.5222 68.3744 65.3251 70.7272 65.3251Z" fill="black"/>
<path d="M27.9653 73.84C24.8656 73.84 22.102 73.0931 19.6746 71.5993C17.2471 70.1428 15.3611 68.1074 14.0167 65.4932C12.6722 62.879 12 59.9287 12 56.6422C12 53.3558 12.6722 50.4055 14.0167 47.7913C15.3611 45.1771 17.2471 43.1417 19.6746 41.6852C22.102 40.1914 24.8656 39.4445 27.9653 39.4445C32.1854 39.4445 35.3225 40.8263 37.3765 43.5899V26H47.3478V73.0557H37.3765V69.6946C35.3225 72.4582 32.1854 73.84 27.9653 73.84ZM29.5339 65.3251C31.9613 65.3251 33.9033 64.5222 35.3598 62.9163C36.8163 61.2731 37.5445 59.1818 37.5445 56.6422C37.5445 54.1027 36.8163 52.03 35.3598 50.4242C33.9033 48.7809 31.9613 47.9593 29.5339 47.9593C27.1811 47.9593 25.2951 48.7809 23.876 50.4242C22.4568 52.03 21.7473 54.1027 21.7473 56.6422C21.7473 59.1818 22.4568 61.2731 23.876 62.9163C25.2951 64.5222 27.1811 65.3251 29.5339 65.3251Z" fill="black"/>
</svg>
